<?xml version="1.0" encoding="UTF-8"?>
<svg version="1.1" xmlns="http://www.w3.org/2000/svg" width="1024" height="1024">
<path d="M0 0 C1.98 0 3.96 0 6 0 C6 0.66 6 1.32 6 2 C6.69158203 1.67692871 7.38316406 1.35385742 8.09570312 1.02099609 C13.66247114 -0.93598305 19.65465491 -0.39253578 25.5 -0.375 C26.20673859 -0.37412384 26.91347717 -0.37324768 27.64163208 -0.37234497 C71.04860021 -0.19617389 117.87559293 11.77459445 150.80078125 41.53125 C152.19876953 42.78421875 152.19876953 42.78421875 153.625 44.0625 C154.44226563 44.83722656 155.25953125 45.61195313 156.1015625 46.41015625 C160.25060083 48.68597646 163.54244204 47.80142658 168 47 C170.25433848 46.68128553 172.50963597 46.36931326 174.765625 46.0625 C178.50716738 45.53307373 182.24815284 45.00026636 185.98828125 44.4609375 C192.05657458 43.60588881 198.12575889 42.82295924 204.2265625 42.23828125 C205.26377441 42.13813721 206.30098633 42.03799316 207.36962891 41.93481445 C210 42 210 42 213.125 44.1875 C213.74375 45.115625 214.3625 46.04375 215 47 C215.598125 47.5775 216.19625 48.155 216.8125 48.75 C218.7319825 52.38691422 218.52475713 55.98165432 218 60 C216.22687502 64.29282891 214.06828596 65.90741382 210 68 C206.89379883 68.69189453 206.89379883 68.69189453 203.45703125 69.1328125 C202.21888672 69.29910156 200.98074219 69.46539062 199.70507812 69.63671875 C198.42052734 69.79785156 197.13597656 69.95898438 195.8125 70.125 C193.25613287 70.45805231 190.70012097 70.79384655 188.14453125 71.1328125 C186.44840698 71.34768311 186.44840698 71.34768311 184.71801758 71.56689453 C182.042255 71.85349998 182.042255 71.85349998 180 73 C180.40089844 73.52464844 180.80179688 74.04929687 181.21484375 74.58984375 C204.94270101 106.92644741 210.50199733 144.28825505 210.43590808 183.40175319 C210.4327602 186.29291892 210.4389702 189.18403827 210.44494683 192.07519728 C210.45887939 198.92167345 210.45752972 205.7680246 210.44604492 212.61450195 C210.43461137 219.58260196 210.44858489 226.55031488 210.4754414 233.51836389 C210.49790539 239.58292708 210.50416718 245.64737159 210.49836498 251.71197325 C210.49506171 255.29758296 210.49694759 258.88294612 210.51461601 262.46851921 C210.74703211 314.66824574 198.68432823 365.84556792 174 412 C173.42813965 413.07773682 173.42813965 413.07773682 172.84472656 414.17724609 C158.12951694 441.76381755 139.17742108 466.95658147 117 489 C115.94421447 490.07704975 114.88960142 491.15524963 113.8359375 492.234375 C106.89193033 499.31059174 99.85556961 505.92747148 92 512 C90.73528809 513.00471887 89.4709947 514.00996471 88.20703125 515.015625 C43.47917987 550.26696778 -7.99858224 568.851713 -64 577 C-64.85706543 577.12745605 -65.71413086 577.25491211 -66.59716797 577.38623047 C-124.81056549 585.79886017 -124.81056549 585.79886017 -144 576 C-148.57795068 572.49348458 -149.70203043 569.52142699 -151 564 C-151.25069833 560.56546539 -151.25069833 560.56546539 -151.25168228 556.89070034 C-151.2560426 555.86531721 -151.2560426 555.86531721 -151.26049101 554.81921926 C-151.2677718 552.5356743 -151.26085662 550.25239967 -151.25396729 547.96885681 C-151.25627253 546.31207392 -151.25944949 544.65529206 -151.26342177 542.99851233 C-151.27177086 538.45053762 -151.26764382 533.90264685 -151.26144934 529.35467184 C-151.2569258 524.44702866 -151.26390849 519.53939995 -151.26940918 514.63175964 C-151.27830883 505.01531327 -151.27637775 495.39889809 -151.2705839 485.78245049 C-151.26606574 477.95862307 -151.26545519 470.13480438 -151.26763153 462.31097603 C-151.267938 461.19703042 -151.26824446 460.08308481 -151.26856022 458.93538328 C-151.26919969 456.6721721 -151.26984812 454.40896093 -151.2705054 452.14574976 C-151.27621139 430.91090762 -151.26964864 409.67608273 -151.25890467 388.44124342 C-151.24998735 370.25500972 -151.25150563 352.06880159 -151.26074219 333.88256836 C-151.27147193 312.7465641 -151.27564265 291.61057503 -151.26951766 270.47456843 C-151.2688806 268.21513244 -151.26825186 265.95569645 -151.26763153 263.69626045 C-151.26732298 262.58472049 -151.26701443 261.47318052 -151.26669653 260.32795752 C-151.2649763 252.5290537 -151.26787052 244.73015957 -151.27259064 236.93125725 C-151.27823038 227.40344005 -151.2766193 217.87565575 -151.26602915 208.34784227 C-151.26081091 203.49453617 -151.25864888 198.64128469 -151.26532745 193.78797913 C-151.32207863 148.58971954 -146.51622762 111.90577298 -122 73 C-122.87736816 72.87471924 -123.75473633 72.74943848 -124.65869141 72.62036133 C-127.93782472 72.14234408 -131.21322261 71.64642048 -134.48779297 71.13842773 C-135.90078356 70.92294425 -137.31486511 70.71448507 -138.72998047 70.51342773 C-140.77384114 70.22175629 -142.81233697 69.90434553 -144.8515625 69.58203125 C-146.07697754 69.39874268 -147.30239258 69.2154541 -148.56494141 69.02661133 C-153.18437962 67.64603296 -156.68374625 65.32280073 -159.12890625 61.0078125 C-160.32473906 55.81509705 -159.81885932 52.72840917 -157 48 C-152.98447656 43.98447656 -149.70457175 43.01827413 -144.109375 42.98046875 C-133.49338881 43.63470976 -123.10722879 45.30643961 -112.625 47.0625 C-111.64692383 47.22089355 -110.66884766 47.37928711 -109.66113281 47.54248047 C-108.05404633 47.81878139 -106.45131448 48.12645584 -104.86230469 48.49267578 C-102.85928107 48.97769042 -102.85928107 48.97769042 -100 49 C-97.43914524 47.40517909 -97.43914524 47.40517909 -95.25 44.875 C-78.20274344 27.92816463 -54.88682796 15.84444632 -32 9 C-30.74960937 8.62359375 -29.49921875 8.2471875 -28.2109375 7.859375 C-18.91668857 5.23741846 -9.52062108 3.5382154 0 2 C0 1.34 0 0.68 0 0 Z M-63.5625 52.68359375 C-64.22378906 53.0798999 -64.88507813 53.47620605 -65.56640625 53.88452148 C-66.03949219 54.25262939 -66.51257813 54.6207373 -67 55 C-67 55.66 -67 56.32 -67 57 C-67.66 57.33 -68.32 57.66 -69 58 C-67.989375 58.103125 -66.97875 58.20625 -65.9375 58.3125 C-62.53519449 58.90655334 -59.97347976 59.83559542 -56.84936523 61.22192383 C-53.98797397 62.42578574 -51.02905506 63.2795047 -48.0625 64.1875 C-16.62563674 74.3363154 10.08383694 96.40138179 25.2265625 125.7265625 C26.80395847 128.18273276 26.80395847 128.18273276 29.41015625 128.796875 C33.51331806 127.53436367 34.83062855 124.17773203 36.8125 120.625 C37.68125414 119.1494219 38.554976 117.67675753 39.43359375 116.20703125 C39.86397949 115.48596191 40.29436523 114.76489258 40.73779297 114.02197266 C43.43228616 109.70557177 46.71975537 105.87469944 50 102 C50.99580078 100.72769531 50.99580078 100.72769531 52.01171875 99.4296875 C70.80171767 76.46823499 101.29973418 65.21928561 129 58 C127.06580704 56.06580704 125.21811923 54.74627928 122.9375 53.25 C118 50 118 50 116.0246582 48.6171875 C110.67490376 44.9213133 105.29748283 42.02974684 99.3125 39.5 C98.41474854 39.11835693 97.51699707 38.73671387 96.59204102 38.34350586 C83.09997558 32.79124922 68.52666567 28.62817068 54 27 C53.04222656 26.89042969 52.08445312 26.78085938 51.09765625 26.66796875 C10.16852972 22.79699209 -28.45591052 31.63660722 -63.5625 52.68359375 Z M143.67578125 78.20703125 C142.64646484 78.46419922 141.61714844 78.72136719 140.55664062 78.98632812 C139.48607422 79.25896484 138.41550781 79.53160156 137.3125 79.8125 C136.26126953 80.07353516 135.21003906 80.33457031 134.12695312 80.60351562 C113.19765188 85.8781684 92.04240186 93.65437255 76.24609375 108.859375 C74 111 74 111 71.0234375 113.40625 C51.36602229 130.26997571 43.72230259 157.11673168 40.29174805 181.72460938 C40.14906494 182.74232422 40.00638184 183.76003906 39.859375 184.80859375 C39.74045898 185.71407959 39.62154297 186.61956543 39.49902344 187.55249023 C38.98732713 190.06215535 38.37674945 191.84334597 37 194 C33.75 196 33.75 196 30 197 C25.94044595 195.28249636 24.3933084 193.77985229 22.41015625 189.84765625 C20.83054444 185.93982071 20.23588555 181.97012471 19.6875 177.8125 C16.29587794 155.7222395 8.52617184 134.4865536 -7 118 C-7.79148437 117.14148438 -8.58296875 116.28296875 -9.3984375 115.3984375 C-15.08470331 109.46104323 -21.17671059 104.56872362 -28 100 C-29.09634766 99.23429687 -29.09634766 99.23429687 -30.21484375 98.453125 C-46.06230031 88.09239769 -65.99433272 82.82811495 -84.3046875 78.7734375 C-85.47620361 78.51312744 -85.47620361 78.51312744 -86.67138672 78.24755859 C-89.37950778 77.95965392 -91.39212526 78.22574468 -94 79 C-116.74407604 103.90227303 -124.24276233 141.44918678 -123 174 C-121.01828379 208.08390766 -100.06043065 232.57167081 -76.57421875 255.36328125 C-75 257 -75 257 -74 259 C-73.34 259 -72.68 259 -72 259 C-72 259.66 -72 260.32 -72 261 C-69.82528925 263.31063017 -67.55471128 265.48095752 -65.23828125 267.6484375 C-35.73013659 296.01935143 -18.0781978 336.8957358 -13 377 C-12.90501221 377.74056641 -12.81002441 378.48113281 -12.7121582 379.24414062 C-6.94176611 429.59273513 -20.4651935 480.37427955 -51.5625 520.3125 C-58.50994681 529.0346124 -65.56663704 536.93303402 -74.3359375 543.88671875 C-76.83810905 545.87157917 -79.27515471 547.90731177 -81.6875 550 C-82.65236328 550.8353125 -82.65236328 550.8353125 -83.63671875 551.6875 C-84.08660156 552.120625 -84.53648437 552.55375 -85 553 C-85 553.33 -85 553.66 -85 554 C-24.0316925 555.57134813 39.05873385 520.60391197 84.5625 483.0078125 C86.28280605 481.59076553 88.0366021 480.21391007 89.8125 478.8671875 C90.534375 478.25101563 91.25625 477.63484375 92 477 C92 476.34 92 475.68 92 475 C92.53625 474.79375 93.0725 474.5875 93.625 474.375 C96.91978009 472.46749574 99.59363628 469.95180616 102 467 C102 466.34 102 465.68 102 465 C102.66 465 103.32 465 104 465 C105.40301437 463.69113189 105.40301437 463.69113189 106.875 461.875 C109.12893112 459.21041476 111.38588213 456.55535025 113.70703125 453.94921875 C147.51239302 415.72857787 169.8412656 367.03490027 179 317 C179.29672974 315.50648155 179.59359807 314.01299063 179.890625 312.51953125 C185.53264843 282.45902147 184.32306052 250.95022641 184.26074219 220.51220703 C184.2492666 214.84849037 184.25599242 209.18496174 184.26788712 203.52125168 C184.27518121 199.07343171 184.27278491 194.62565497 184.26763153 190.17783356 C184.26632014 188.09071072 184.26785187 186.00358363 184.27259064 183.91646576 C184.29695795 170.20054574 183.84263933 156.60858122 182 143 C181.67 142.67 181.34 142.34 181 142 C180.896875 140.7625 180.79375 139.525 180.6875 138.25 C180.04998036 131.89504229 177.98579347 126.04075342 176 120 C175.67902344 118.87658203 175.67902344 118.87658203 175.3515625 117.73046875 C171.80573002 105.68845325 164.99065518 94.31464318 158 84 C157.5359375 83.26523437 157.071875 82.53046875 156.59375 81.7734375 C155.22850884 79.60603015 155.22850884 79.60603015 153 77 C149.4911817 77 147.03089465 77.36657665 143.67578125 78.20703125 Z M29 130 C30 132 30 132 30 132 Z M-123 242 C-122 244 -122 244 -122 244 Z M-122 244 C-122.91657632 247.12294296 -123.12440859 249.91229071 -123.12304783 253.16178513 C-123.12503888 254.2112846 -123.12702993 255.26078407 -123.12908131 256.34208655 C-123.12616847 257.49382873 -123.12325563 258.6455709 -123.12025452 259.83221436 C-123.12110894 261.05661421 -123.12196337 262.28101407 -123.12284368 263.54251695 C-123.12420755 266.94257154 -123.12107638 270.34256875 -123.11606562 273.74261642 C-123.11175185 277.40856536 -123.11320821 281.07451249 -123.1139679 284.74046326 C-123.11449254 291.09248017 -123.11135193 297.44448683 -123.10573006 303.79650116 C-123.09760704 312.98047563 -123.09499901 322.16444513 -123.09374207 331.3484228 C-123.09155281 346.24839796 -123.08489614 361.14836765 -123.07543945 376.04833984 C-123.06626207 390.52327446 -123.05918283 404.99820759 -123.05493164 419.47314453 C-123.05466892 420.36520532 -123.05440619 421.2572661 -123.05413551 422.17635903 C-123.05283048 426.65151379 -123.05156677 431.12666855 -123.05032361 435.60182333 C-123.03995493 472.73455275 -123.02234004 509.86727595 -123 547 C-109.68774083 547 -94.48179766 528.91451062 -85 520 C-84.36320312 519.41734375 -83.72640625 518.8346875 -83.0703125 518.234375 C-53.43189525 490.15587445 -37.2459723 446.50503635 -36.02734375 406.3046875 C-35.43463223 361.86172182 -50.73599721 318.2729297 -81.48046875 285.6953125 C-83.47481871 283.56182185 -85.38909832 281.39985795 -87.29296875 279.1875 C-91.0434713 274.87966133 -95.04958255 270.87337742 -99.125 266.875 C-106.7833075 259.35983844 -106.7833075 259.35983844 -109.8671875 255.5078125 C-110.57101562 254.68023437 -111.27484375 253.85265625 -112 253 C-112.66 253 -113.32 253 -114 253 C-114 252.34 -114 251.68 -114 251 C-116.52892721 248.26602464 -118.89595133 246.06936578 -122 244 Z " fill="#43C3E6" transform="translate(479,208)"/>
<path d="M0 0 C6.71736175 6.70475882 10.00804721 13.92703858 10.4375 23.375 C10.10885783 32.78731169 6.78145415 40.27050296 0.2890625 47.0546875 C-6.88839718 53.15430341 -14.74964195 55.39667144 -23.9921875 55.2734375 C-32.91565278 54.46221338 -40.06537335 50.63599161 -46 44 C-51.86553816 36.39874136 -53.88416121 28.52612399 -53 19 C-51.53941066 10.34268866 -47.6044308 3.32581041 -40.42578125 -1.859375 C-26.87116087 -10.17023713 -12.67732109 -9.80658887 0 0 Z " fill="#43C3E6" transform="translate(451,339)"/>
<path d="M0 0 C1.12136353 -0.02743286 1.12136353 -0.02743286 2.26538086 -0.05541992 C10.00808609 0.02906457 16.42011178 3.39725047 22.140625 8.52734375 C28.02235643 15.46723714 31.2068478 24.20631559 31.01953125 33.265625 C30.22675117 41.82166657 26.83124241 48.42316162 20.8125 54.5 C12.92646831 61.00667279 4.98340817 63.45779853 -5.1875 62.5 C-15.03218954 60.72765801 -22.47926792 55.65461726 -28.1875 47.5 C-32.30957989 39.84224489 -33.30105086 30.47416815 -31 22.125 C-28.884916 16.12585265 -25.6420967 11.9545967 -21.1875 7.5 C-20.8575 6.51 -20.5275 5.52 -20.1875 4.5 C-14.03227917 0.65780579 -7.0685305 0.08960417 0 0 Z " fill="#43C3E6" transform="translate(588.1875,331.5)"/>
<path d="M0 0 C4.10516822 3.67865724 6.94074446 7.67277517 9.8125 12.3125 C10.42254883 13.28026367 10.42254883 13.28026367 11.04492188 14.26757812 C12.0358257 15.84136655 13.01875372 17.42017212 14 19 C14.6290625 17.98679687 15.258125 16.97359375 15.90625 15.9296875 C25.88608808 0.19473761 25.88608808 0.19473761 34.4375 -2.875 C35.7059375 -2.936875 35.7059375 -2.936875 37 -3 C38.03640625 -3.07347656 38.03640625 -3.07347656 39.09375 -3.1484375 C44.20650216 -3.36999009 47.52968058 -2.7509658 52 0 C52.68554981 5.94760784 50.51145429 9.10797643 47.375 13.875 C46.36419319 15.46163803 45.35654828 17.05029351 44.3515625 18.640625 C43.81047852 19.49462891 43.26939453 20.34863281 42.71191406 21.22851562 C40.87810726 24.1973369 39.13060279 27.20517772 37.3984375 30.234375 C36.79209473 31.29414551 36.18575195 32.35391602 35.56103516 33.44580078 C34.38012883 35.51883424 33.20503373 37.59519216 32.03662109 39.67529297 C23.75630957 54.12184522 23.75630957 54.12184522 18 57 C10.69565217 57.23188406 10.69565217 57.23188406 7 56 C0.36144021 48.91353738 -3.88785964 39.85492357 -8.41113281 31.36767578 C-15.09262702 18.42455109 -15.09262702 18.42455109 -24 7 C-24.25 3.5625 -24.25 3.5625 -24 0 C-16.73492883 -4.84338078 -7.40607396 -4.05238009 0 0 Z " fill="#42C1E3" transform="translate(495,416)"/>
<path d="M0 0 C15.03737583 14.29518775 20.30830899 39.75953683 22.83666992 59.65771484 C23.29517918 62.79335122 23.65100993 64.64239289 25.8984375 66.9453125 C28.78825751 68.39559392 30.81210104 68.40696583 34 68 C36.2783231 66.33026298 36.93227615 65.2500573 37.67602539 62.50390625 C37.88473267 61.04791016 37.88473267 61.04791016 38.09765625 59.5625 C38.25943359 58.50289063 38.42121094 57.44328125 38.58789062 56.3515625 C38.74451172 55.24554688 38.90113281 54.13953125 39.0625 53 C39.38005869 50.81152324 39.70399537 48.62395981 40.03515625 46.4375 C40.1731665 45.46683594 40.31117676 44.49617188 40.45336914 43.49609375 C41 41 41 41 43 38 C42.54765081 44.49954367 41.94410112 50.97342698 41.125 57.4375 C40.98320313 58.57058594 40.84140625 59.70367187 40.6953125 60.87109375 C39.9604362 64.17803711 39.00470189 66.28240889 37 69 C33.6875 71.0625 33.6875 71.0625 30 72 C25.95210188 70.05389513 23.40217375 67.74991834 21 64 C20.2956543 61.44482422 20.2956543 61.44482422 19.82421875 58.5546875 C19.63956055 57.48661865 19.45490234 56.4185498 19.26464844 55.31811523 C19.07418945 54.18188721 18.88373047 53.04565918 18.6875 51.875 C15.67102129 35.26949068 11.11310483 21.10502393 2.85546875 6.37890625 C1 3 1 3 0 0 Z " fill="#39A0BD" transform="translate(479,334)"/>
<path d="M0 0 C1.98 0 3.96 0 6 0 C6 0.66 6 1.32 6 2 C6.68650635 1.67620361 7.3730127 1.35240723 8.08032227 1.01879883 C13.77925245 -0.96979852 19.95815263 -0.34135728 25.9375 -0.3125 C26.64820648 -0.31167419 27.35891296 -0.31084839 28.09115601 -0.30999756 C60.16370753 -0.22419498 60.16370753 -0.22419498 68 5 C67.26998779 4.93071289 66.53997559 4.86142578 65.7878418 4.79003906 C54.87933512 3.87632258 43.99387969 3.77963347 33.05249023 3.75976562 C29.83616146 3.75007132 26.62047637 3.71895648 23.40429688 3.6875 C11.94634838 3.63069519 1.0414902 4.22875764 -10.2277832 6.35253906 C-13.2719258 6.8750338 -15.9309034 7.14353929 -19 7 C-16.7766119 4.7766119 -16.07694479 4.6394984 -13.0859375 4.1484375 C-11.94511719 3.95507812 -11.94511719 3.95507812 -10.78125 3.7578125 C-9.9871875 3.63148438 -9.193125 3.50515625 -8.375 3.375 C-7.57320313 3.2409375 -6.77140625 3.106875 -5.9453125 2.96875 C-3.96472516 2.63865211 -1.98250325 2.31838917 0 2 C0 1.34 0 0.68 0 0 Z " fill="#3EA9C7" transform="translate(479,208)"/>
<path d="M0 0 C-2.54216773 1.69477849 -3.99297359 2.42084373 -6.81640625 3.2265625 C-7.94900879 3.56071167 -7.94900879 3.56071167 -9.10449219 3.90161133 C-9.91563477 4.14032959 -10.72677734 4.37904785 -11.5625 4.625 C-33.36143621 11.31170082 -53.35483624 21.83859501 -70.45703125 37.046875 C-71.03759277 37.55814941 -71.6181543 38.06942383 -72.21630859 38.59619141 C-73.34025034 39.59450676 -74.45199954 40.60676858 -75.54931641 41.63427734 C-77.08984375 43.0078125 -77.08984375 43.0078125 -80 45 C-82.87890625 44.8046875 -82.87890625 44.8046875 -85 44 C-85 43.67 -85 43.34 -85 43 C-84.09636719 42.74863281 -83.19273437 42.49726563 -82.26171875 42.23828125 C-78.85245903 40.94398744 -77.34537879 39.7488915 -74.8125 37.1875 C-57.1554138 20.76904522 -34.8689502 9.18881567 -12 2 C-10.92363281 1.62230469 -9.84726562 1.24460938 -8.73828125 0.85546875 C-5.69956595 -0.09385885 -3.16479241 -0.1507044 0 0 Z " fill="#3AA3C0" transform="translate(459,215)"/>
<path d="M0 0 C2.68495774 4.02743661 2.57173628 7.26867516 2 12 C0.5 15.0625 0.5 15.0625 -1 17 C-1.66 16.67 -2.32 16.34 -3 16 C-2.505 15.29875 -2.01 14.5975 -1.5 13.875 C0.24902925 10.52269394 0.4665943 8.73275441 0 5 C-1.66762322 1.50593231 -2.74006022 0.17329319 -6 -2 C-8.57160553 -2.21859946 -10.9994607 -2.31345388 -13.5703125 -2.2890625 C-14.69616257 -2.28309555 -14.69616257 -2.28309555 -15.84475708 -2.27700806 C-24.31095571 -2.12703257 -32.54407622 -0.78992599 -40.875 0.625 C-43.87032203 1.13109083 -46.8677058 1.62082697 -49.8671875 2.1015625 C-51.81794189 2.43148193 -51.81794189 2.43148193 -53.80810547 2.76806641 C-57 3 -57 3 -60 1 C-60 0.34 -60 -0.32 -60 -1 C-58.91074219 -0.79761719 -57.82148437 -0.59523437 -56.69921875 -0.38671875 C-51.21289007 0.29350414 -46.19732873 -0.7809637 -40.8125 -1.8125 C-32.70737371 -3.2348917 -24.60692835 -4.62533441 -16.4375 -5.625 C-15.16386597 -5.81993042 -15.16386597 -5.81993042 -13.86450195 -6.01879883 C-7.39922174 -6.73759618 -4.20996172 -4.88570737 0 0 Z " fill="#3AA0BD" transform="translate(695,256)"/>
<path d="M0 0 C0.66 0 1.32 0 2 0 C3.375 1.3984375 3.375 1.3984375 5 3.375 C8.76222012 7.82921409 12.86058282 11.85683532 17.05859375 15.8984375 C19 18 19 18 19 20 C19.99 20.33 20.98 20.66 22 21 C23.5078125 22.53125 23.5078125 22.53125 25.125 24.5 C27.79214921 27.65106235 30.55564922 30.60589411 33.5 33.5 C37.54924206 37.49367785 41.32417103 41.66228543 45 46 C44.505 46.99 44.505 46.99 44 48 C42.97561545 47.00363813 41.95577287 46.00260713 40.9375 45 C40.36902344 44.443125 39.80054688 43.88625 39.21484375 43.3125 C37.33062331 41.34520106 35.55613489 39.33791822 33.78125 37.2734375 C29.24807174 32.05638241 24.3012105 27.2840828 19.34570312 22.47265625 C18.65541016 21.79332031 17.96511719 21.11398437 17.25390625 20.4140625 C16.62814697 19.8051416 16.0023877 19.1962207 15.35766602 18.56884766 C14 17 14 17 14 15 C13.01 14.67 12.02 14.34 11 14 C9.3125 12.5625 9.3125 12.5625 8 11 C8 10.34 8 9.68 8 9 C7.4225 8.773125 6.845 8.54625 6.25 8.3125 C3.40260191 6.65151778 1.87932807 4.68475439 0 2 C0 1.34 0 0.68 0 0 Z " fill="#37A0BD" transform="translate(357,450)"/>
<path d="M0 0 C0.66 0.33 1.32 0.66 2 1 C-9.8097044 13.79995911 -24.54315102 23.46532102 -39 33 C-39.96808594 33.639375 -40.93617188 34.27875 -41.93359375 34.9375 C-42.61550781 35.288125 -43.29742188 35.63875 -44 36 C-44.66 35.67 -45.32 35.34 -46 35 C-45.49251221 34.65855957 -44.98502441 34.31711914 -44.4621582 33.96533203 C-21.01057662 18.50729549 -21.01057662 18.50729549 0 0 Z " fill="#379FBC" transform="translate(569,685)"/>
<path d="M0 0 C3.63 0.33 7.26 0.66 11 1 C10.0236939 5.12218131 8.35914914 8.02507679 5.875 11.375 C-1.46920968 21.53449006 -6.42440891 33.38503801 -11 45 C-12.04545467 41.842202 -12.00936791 40.22941007 -10.6640625 37.19921875 C-10.34590576 36.47629639 -10.02774902 35.75337402 -9.69995117 35.00854492 C-9.34521729 34.2426001 -8.9904834 33.47665527 -8.625 32.6875 C-8.26575439 31.89512939 -7.90650879 31.10275879 -7.53637695 30.28637695 C-3.92110109 22.49932959 0.42272873 15.24960322 5 8 C6.00458215 6.3360912 7.00646025 4.67052583 8 3 C5.36 2.34 2.72 1.68 0 1 C0 0.67 0 0.34 0 0 Z " fill="#389CB8" transform="translate(349,278)"/>
<path d="M0 0 C3.79954885 3.5466892 6.6426306 7.21407556 9.3125 11.6875 C9.67150391 12.26822266 10.03050781 12.84894531 10.40039062 13.44726562 C13 17.73043155 13 17.73043155 13 20 C15.39565397 19.88949415 15.39565397 19.88949415 18 19 C19.89515826 16.72680771 19.89515826 16.72680771 21.3125 13.9375 C22.08013672 12.55884766 22.08013672 12.55884766 22.86328125 11.15234375 C23.23839844 10.44207031 23.61351562 9.73179687 24 9 C24.33 9.66 24.66 10.32 25 11 C23.80583901 13.59766871 22.55975898 16.06178439 21.1875 18.5625 C20.81818359 19.26052734 20.44886719 19.95855469 20.06835938 20.67773438 C17.26442068 25.86778966 17.26442068 25.86778966 15 27 C14.72325439 26.49138428 14.44650879 25.98276855 14.16137695 25.45874023 C12.88307032 23.1157545 11.59783902 20.7766347 10.3125 18.4375 C9.65991211 17.23770508 9.65991211 17.23770508 8.99414062 16.01367188 C6.89195139 12.19858772 4.74973915 8.54763894 2.16796875 5.03515625 C0 2 0 2 0 0 Z M15 22 C16 24 16 24 16 24 Z " fill="#36A0BD" transform="translate(493,316)"/>
<path d="M0 0 C3.63 0.33 7.26 0.66 11 1 C9.51637716 7.26418531 5.75837844 11.91513505 2 17 C1.34 16.67 0.68 16.34 0 16 C0.86625 14.71802734 0.86625 14.71802734 1.75 13.41015625 C2.50012058 12.29435189 3.25011404 11.17846205 4 10.0625 C4.3815625 9.49853516 4.763125 8.93457031 5.15625 8.35351562 C7.14006188 5.88111084 7.14006188 5.88111084 8 3 C5.36 2.34 2.72 1.68 0 1 C0 0.67 0 0.34 0 0 Z " fill="#3AA3C0" transform="translate(349,278)"/>
<path d="M0 0 C-2.84581861 1.89721241 -4.00253212 2.34791281 -7.23046875 2.8515625 C-8.03291016 2.98046875 -8.83535156 3.109375 -9.66210938 3.2421875 C-10.49548828 3.36851562 -11.32886719 3.49484375 -12.1875 3.625 C-13.03248047 3.7590625 -13.87746094 3.893125 -14.74804688 4.03125 C-16.83099945 4.36075662 -18.91537427 4.68124989 -21 5 C-21 4.01 -21 3.02 -21 2 C-18.62561751 1.6616656 -16.25065041 1.32920998 -13.875 1 C-12.87726562 0.85691406 -12.87726562 0.85691406 -11.859375 0.7109375 C-7.87371019 0.16388547 -4.02140062 -0.10022182 0 0 Z " fill="#39A2C0" transform="translate(678,276)"/>
<path d="M0 0 C-4.75 3 -4.75 3 -7 3 C-7.33 4.32 -7.66 5.64 -8 7 C-9.32 7 -10.64 7 -12 7 C-12 6.34 -12 5.68 -12 5 C-11.34 4.67 -10.68 4.34 -10 4 C-9.67 3.01 -9.34 2.02 -9 1 C-3.79245283 -1.26415094 -3.79245283 -1.26415094 0 0 Z " fill="#3BABC9" transform="translate(577,335)"/>
<path d="M0 0 C0.66 0.33 1.32 0.66 2 1 C-3.94 6.445 -3.94 6.445 -10 12 C-10.66 11.67 -11.32 11.34 -12 11 C-8.19588166 7.08060535 -4.18423892 3.50897269 0 0 Z " fill="#38A3C1" transform="translate(547,292)"/>
<path d="M0 0 C2 0 2 0 3.7265625 1.64453125 C4.35304688 2.35996094 4.97953125 3.07539063 5.625 3.8125 C6.25664062 4.52019531 6.88828125 5.22789062 7.5390625 5.95703125 C9 8 9 8 9 11 C8.67 10.34 8.34 9.68 8 9 C7.401875 8.731875 6.80375 8.46375 6.1875 8.1875 C3.31596146 6.62866479 1.85897399 4.65567714 0 2 C0 1.34 0 0.68 0 0 Z " fill="#3BA7C6" transform="translate(357,450)"/>
<path d="M0 0 C0.66 0.33 1.32 0.66 2 1 C0.625 2.5 0.625 2.5 -1 4 C-1.66 4 -2.32 4 -3 4 C-3.2475 4.598125 -3.495 5.19625 -3.75 5.8125 C-5.16370012 8.28647521 -6.65055383 9.43370255 -9 11 C-7.59928507 5.70841026 -4.14512755 3.22521956 0 0 Z " fill="#48CDF0" transform="translate(413,337)"/>
<path d="M0 0 C0.66 0 1.32 0 2 0 C1.731875 0.515625 1.46375 1.03125 1.1875 1.5625 C-0.32349407 4.66401415 -1.65572726 7.82262806 -3 11 C-3.33 11 -3.66 11 -4 11 C-3.25531915 3.25531915 -3.25531915 3.25531915 0 0 Z " fill="#49CFF1" transform="translate(325,255)"/>
<path d="M0 0 C1.65 0 3.3 0 5 0 C4.67 0.66 4.34 1.32 4 2 C4.33 2.99 4.66 3.98 5 5 C4.01 5.66 3.02 6.32 2 7 C0.5393715 4.35261084 0 3.10551666 0 0 Z M2 2 C3 4 3 4 3 4 Z " fill="#3FB3D2" transform="translate(506,336)"/>
<path d="M0 0 C0.99 0.33 1.98 0.66 3 1 C1.68 1.33 0.36 1.66 -1 2 C-0.67 1.34 -0.34 0.68 0 0 Z " fill="#4DC7E9" transform="translate(629,286)"/>
<path d="M0 0 C4 1 4 1 4 1 Z " fill="#4CC7E8" transform="translate(440,752)"/>
<path d="M0 0 C0.33 0.66 0.66 1.32 1 2 C0.01 1.67 -0.98 1.34 -2 1 C-1.34 0.67 -0.68 0.34 0 0 Z " fill="#4DC6E8" transform="translate(598,294)"/>
<path d="M0 0 C4 1 4 1 4 1 Z " fill="#4CC3E4" transform="translate(524,236)"/>
<path d="M0 0 C3 1 3 1 3 1 Z " fill="#49BADA" transform="translate(429,783)"/>
<path d="M0 0 C3 1 3 1 3 1 Z " fill="#4ABBD9" transform="translate(435,782)"/>
<path d="M0 0 C3 1 3 1 3 1 Z " fill="#4AB7D7" transform="translate(441,781)"/>
<path d="" fill="#48AAC5" transform="translate(0,0)"/>
<path d="" fill="#4AC3E4" transform="translate(0,0)"/>
<path d="" fill="#4AC4E6" transform="translate(0,0)"/>
<path d="M0 0 C0.66 0.66 1.32 1.32 2 2 C1.34 2 0.68 2 0 2 C0 1.34 0 0.68 0 0 Z " fill="#4EC7E9" transform="translate(579,329)"/>
<path d="M0 0 C3 1 3 1 3 1 Z " fill="#48BAD9" transform="translate(533,208)"/>
<path d="M0 0 C2 1 2 1 2 1 Z " fill="#4BB8D7" transform="translate(401,787)"/>
<path d="" fill="#4CC3E4" transform="translate(0,0)"/>
<path d="M0 0 C2 1 2 1 2 1 Z " fill="#4BC6E6" transform="translate(553,696)"/>
<path d="" fill="#4CC3E3" transform="translate(0,0)"/>
<path d="" fill="#4CC4E4" transform="translate(0,0)"/>
<path d="" fill="#49B9DC" transform="translate(0,0)"/>
<path d="" fill="#4CBBDA" transform="translate(0,0)"/>
<path d="" fill="#4BC4E4" transform="translate(0,0)"/>
<path d="" fill="#4DC0E2" transform="translate(0,0)"/>
<path d="" fill="#4CBBDC" transform="translate(0,0)"/>
<path d="" fill="#4AC3E4" transform="translate(0,0)"/>
<path d="" fill="#4DC1E0" transform="translate(0,0)"/>
<path d="" fill="#48C2E4" transform="translate(0,0)"/>
<path d="M0 0 C2 1 2 1 2 1 Z " fill="#4AC3E4" transform="translate(604,390)"/>
<path d="" fill="#4CC5E7" transform="translate(0,0)"/>
<path d="" fill="#4CC4E5" transform="translate(0,0)"/>
<path d="" fill="#4BC3E4" transform="translate(0,0)"/>
<path d="" fill="#4DC5E6" transform="translate(0,0)"/>
<path d="" fill="#4ABDDC" transform="translate(0,0)"/>
<path d="" fill="#4CC3E5" transform="translate(0,0)"/>
<path d="" fill="#4DC7E8" transform="translate(0,0)"/>
<path d="M0 0 C2 1 2 1 2 1 Z " fill="#4CC8EB" transform="translate(434,301)"/>
<path d="M0 0 C2 1 2 1 2 1 Z " fill="#4CC9EB" transform="translate(432,300)"/>
<path d="" fill="#4DC4E7" transform="translate(0,0)"/>
<path d="M0 0 C2 1 2 1 2 1 Z " fill="#4BBDDD" transform="translate(663,251)"/>
<path d="M0 0 C2 1 2 1 2 1 Z " fill="#48B4D5" transform="translate(682,249)"/>
<path d="M0 0 C2 1 2 1 2 1 Z " fill="#4DC6EA" transform="translate(572,247)"/>
<path d="M0 0 C2 1 2 1 2 1 Z " fill="#4BC4E7" transform="translate(545,239)"/>
<path d="M0 0 C2 1 2 1 2 1 Z " fill="#4AC7EA" transform="translate(537,237)"/>
<path d="M0 0 C2 1 2 1 2 1 Z " fill="#4DC7E9" transform="translate(481,237)"/>
<path d="M0 0 C2 1 2 1 2 1 Z " fill="#4CC4E6" transform="translate(492,236)"/>
<path d="M0 0 C2 1 2 1 2 1 Z " fill="#4CBEDF" transform="translate(424,224)"/>
<path d="M0 0 C2 1 2 1 2 1 Z " fill="#4BBDDC" transform="translate(444,216)"/>
<path d="M0 0 C2 1 2 1 2 1 Z " fill="#4CBBDB" transform="translate(551,211)"/>
<path d="M0 0 C2 1 2 1 2 1 Z " fill="#49BBDB" transform="translate(542,209)"/>
<path d="" fill="#4BB6D4" transform="translate(0,0)"/>
<path d="" fill="#4AB3D3" transform="translate(0,0)"/>
<path d="" fill="#4BB4D5" transform="translate(0,0)"/>
<path d="" fill="#4AB2D1" transform="translate(0,0)"/>
<path d="" fill="#4AB8D6" transform="translate(0,0)"/>
<path d="" fill="#4AB0CE" transform="translate(0,0)"/>
<path d="" fill="#49B7D5" transform="translate(0,0)"/>
<path d="" fill="#48ACC7" transform="translate(0,0)"/>
<path d="" fill="#4BB6D4" transform="translate(0,0)"/>
<path d="" fill="#4CB7D7" transform="translate(0,0)"/>
<path d="" fill="#47B7D6" transform="translate(0,0)"/>
<path d="" fill="#48B5D6" transform="translate(0,0)"/>
<path d="" fill="#4DB8D5" transform="translate(0,0)"/>
<path d="" fill="#4DC9EA" transform="translate(0,0)"/>
<path d="" fill="#4EC9E9" transform="translate(0,0)"/>
<path d="" fill="#4DC5E8" transform="translate(0,0)"/>
<path d="" fill="#4CC7E7" transform="translate(0,0)"/>
<path d="" fill="#48B6D4" transform="translate(0,0)"/>
<path d="" fill="#4EC7E8" transform="translate(0,0)"/>
<path d="" fill="#4CC6E8" transform="translate(0,0)"/>
<path d="" fill="#4EC7E9" transform="translate(0,0)"/>
<path d="" fill="#4EC5E5" transform="translate(0,0)"/>
<path d="" fill="#48B7D6" transform="translate(0,0)"/>
<path d="" fill="#4AB7D4" transform="translate(0,0)"/>
<path d="" fill="#4BC1E5" transform="translate(0,0)"/>
<path d="" fill="#4AB7D5" transform="translate(0,0)"/>
<path d="" fill="#4BC3E6" transform="translate(0,0)"/>
<path d="" fill="#4DC7E7" transform="translate(0,0)"/>
<path d="" fill="#4CB8D5" transform="translate(0,0)"/>
<path d="" fill="#49C2E3" transform="translate(0,0)"/>
<path d="" fill="#4BC3E5" transform="translate(0,0)"/>
<path d="" fill="#4DC4E4" transform="translate(0,0)"/>
<path d="" fill="#4BC6E4" transform="translate(0,0)"/>
<path d="" fill="#4CC8E9" transform="translate(0,0)"/>
<path d="" fill="#4EB7D5" transform="translate(0,0)"/>
<path d="" fill="#48C5E6" transform="translate(0,0)"/>
<path d="" fill="#4DC4E3" transform="translate(0,0)"/>
<path d="" fill="#4FC4E4" transform="translate(0,0)"/>
<path d="" fill="#4CBFE3" transform="translate(0,0)"/>
<path d="" fill="#4DC5E5" transform="translate(0,0)"/>
<path d="" fill="#4EC5E3" transform="translate(0,0)"/>
<path d="" fill="#4EC7E8" transform="translate(0,0)"/>
<path d="" fill="#4BC0E3" transform="translate(0,0)"/>
<path d="" fill="#4AB8D7" transform="translate(0,0)"/>
<path d="" fill="#48B9D8" transform="translate(0,0)"/>
<path d="" fill="#4AC1E2" transform="translate(0,0)"/>
<path d="" fill="#4EC4E2" transform="translate(0,0)"/>
<path d="" fill="#4CC2E4" transform="translate(0,0)"/>
<path d="" fill="#4BC1E1" transform="translate(0,0)"/>
<path d="" fill="#4EC2E5" transform="translate(0,0)"/>
<path d="" fill="#4CC5E6" transform="translate(0,0)"/>
<path d="" fill="#4DC4E6" transform="translate(0,0)"/>
<path d="" fill="#51C0DF" transform="translate(0,0)"/>
<path d="" fill="#4CB9D8" transform="translate(0,0)"/>
<path d="" fill="#4DC6E5" transform="translate(0,0)"/>
<path d="" fill="#4BC1E1" transform="translate(0,0)"/>
<path d="" fill="#4DC1E1" transform="translate(0,0)"/>
<path d="" fill="#4CBFDE" transform="translate(0,0)"/>
<path d="" fill="#4CC1E0" transform="translate(0,0)"/>
<path d="" fill="#4EC3E1" transform="translate(0,0)"/>
<path d="" fill="#4CC1E1" transform="translate(0,0)"/>
<path d="" fill="#4EC6E5" transform="translate(0,0)"/>
<path d="" fill="#4EC4E4" transform="translate(0,0)"/>
<path d="" fill="#4AB8D8" transform="translate(0,0)"/>
<path d="" fill="#4CC0E4" transform="translate(0,0)"/>
<path d="" fill="#4CC4E5" transform="translate(0,0)"/>
<path d="" fill="#4EC1E0" transform="translate(0,0)"/>
<path d="" fill="#4EC4E5" transform="translate(0,0)"/>
<path d="" fill="#4DC4E5" transform="translate(0,0)"/>
<path d="" fill="#4FC5E4" transform="translate(0,0)"/>
<path d="" fill="#4DC3E2" transform="translate(0,0)"/>
<path d="" fill="#4BC4E4" transform="translate(0,0)"/>
<path d="" fill="#4BC3E4" transform="translate(0,0)"/>
<path d="" fill="#4BC2E0" transform="translate(0,0)"/>
<path d="" fill="#4EC8E8" transform="translate(0,0)"/>
<path d="" fill="#4CC7E9" transform="translate(0,0)"/>
<path d="" fill="#4BC4E6" transform="translate(0,0)"/>
<path d="" fill="#4FC9EA" transform="translate(0,0)"/>
<path d="" fill="#4EC7EC" transform="translate(0,0)"/>
<path d="" fill="#49C6E5" transform="translate(0,0)"/>
<path d="" fill="#4EC5E7" transform="translate(0,0)"/>
<path d="" fill="#4CC6E7" transform="translate(0,0)"/>
<path d="" fill="#4DC7E8" transform="translate(0,0)"/>
<path d="" fill="#48BDDD" transform="translate(0,0)"/>
<path d="" fill="#4EC4E4" transform="translate(0,0)"/>
<path d="" fill="#4FC4E3" transform="translate(0,0)"/>
<path d="" fill="#4EC7E7" transform="translate(0,0)"/>
<path d="" fill="#4AC1E6" transform="translate(0,0)"/>
<path d="" fill="#4BC1E0" transform="translate(0,0)"/>
<path d="" fill="#4BC5E4" transform="translate(0,0)"/>
<path d="" fill="#4CC4E5" transform="translate(0,0)"/>
<path d="" fill="#4DC4E7" transform="translate(0,0)"/>
<path d="" fill="#4CC8EB" transform="translate(0,0)"/>
<path d="" fill="#4AC3E1" transform="translate(0,0)"/>
<path d="" fill="#4DC9EA" transform="translate(0,0)"/>
<path d="" fill="#4DC8E9" transform="translate(0,0)"/>
<path d="" fill="#4CC9E8" transform="translate(0,0)"/>
<path d="" fill="#4FC6E5" transform="translate(0,0)"/>
<path d="" fill="#4EC3E1" transform="translate(0,0)"/>
<path d="" fill="#50C6E4" transform="translate(0,0)"/>
<path d="" fill="#50C6E7" transform="translate(0,0)"/>
<path d="" fill="#4DC7E8" transform="translate(0,0)"/>
<path d="" fill="#4EC2E1" transform="translate(0,0)"/>
<path d="" fill="#4CC6E9" transform="translate(0,0)"/>
<path d="" fill="#4AC6E6" transform="translate(0,0)"/>
<path d="" fill="#4AC5E9" transform="translate(0,0)"/>
<path d="" fill="#4CC6E6" transform="translate(0,0)"/>
<path d="" fill="#4DC8E9" transform="translate(0,0)"/>
<path d="" fill="#4FC7E7" transform="translate(0,0)"/>
<path d="" fill="#50C5E7" transform="translate(0,0)"/>
<path d="" fill="#4AC7EC" transform="translate(0,0)"/>
<path d="" fill="#4DC4E5" transform="translate(0,0)"/>
<path d="" fill="#4BC7E8" transform="translate(0,0)"/>
<path d="" fill="#4FC5E5" transform="translate(0,0)"/>
<path d="" fill="#4EC1E2" transform="translate(0,0)"/>
<path d="" fill="#4FC6E5" transform="translate(0,0)"/>
<path d="" fill="#50C5E5" transform="translate(0,0)"/>
<path d="" fill="#4EC8E9" transform="translate(0,0)"/>
<path d="" fill="#4EC6E8" transform="translate(0,0)"/>
<path d="" fill="#4EC6E6" transform="translate(0,0)"/>
<path d="" fill="#4FC5E4" transform="translate(0,0)"/>
<path d="" fill="#4BC5E7" transform="translate(0,0)"/>
<path d="" fill="#4BC3E5" transform="translate(0,0)"/>
<path d="" fill="#4CC4E5" transform="translate(0,0)"/>
<path d="" fill="#4DC6E8" transform="translate(0,0)"/>
<path d="" fill="#4CC6E9" transform="translate(0,0)"/>
<path d="" fill="#4DC8EE" transform="translate(0,0)"/>
<path d="" fill="#4DC6E5" transform="translate(0,0)"/>
<path d="" fill="#4AC4E6" transform="translate(0,0)"/>
<path d="" fill="#4DC8E5" transform="translate(0,0)"/>
<path d="" fill="#4DC6EA" transform="translate(0,0)"/>
<path d="" fill="#4FC8E9" transform="translate(0,0)"/>
<path d="" fill="#4DC7E9" transform="translate(0,0)"/>
<path d="" fill="#4BBCDE" transform="translate(0,0)"/>
<path d="" fill="#4AC4E8" transform="translate(0,0)"/>
<path d="" fill="#4CC5E7" transform="translate(0,0)"/>
<path d="" fill="#4AC7E7" transform="translate(0,0)"/>
<path d="" fill="#49C6E8" transform="translate(0,0)"/>
<path d="" fill="#49C6E9" transform="translate(0,0)"/>
<path d="" fill="#4CBDDC" transform="translate(0,0)"/>
<path d="" fill="#4DC6E7" transform="translate(0,0)"/>
<path d="" fill="#4BC3E5" transform="translate(0,0)"/>
<path d="" fill="#4BBDDC" transform="translate(0,0)"/>
<path d="" fill="#4FC5E8" transform="translate(0,0)"/>
<path d="" fill="#4FC7EB" transform="translate(0,0)"/>
<path d="" fill="#4BC8EA" transform="translate(0,0)"/>
<path d="" fill="#4FC7E8" transform="translate(0,0)"/>
<path d="" fill="#4BC4E4" transform="translate(0,0)"/>
<path d="" fill="#4DC7EA" transform="translate(0,0)"/>
<path d="" fill="#4EC8EB" transform="translate(0,0)"/>
<path d="" fill="#4CC5E6" transform="translate(0,0)"/>
<path d="" fill="#4EC7E8" transform="translate(0,0)"/>
<path d="" fill="#4BC4E7" transform="translate(0,0)"/>
<path d="" fill="#4CC5E6" transform="translate(0,0)"/>
<path d="" fill="#4CC7E5" transform="translate(0,0)"/>
<path d="" fill="#4FC8EA" transform="translate(0,0)"/>
<path d="" fill="#4DC6E7" transform="translate(0,0)"/>
<path d="" fill="#4EC5E7" transform="translate(0,0)"/>
<path d="" fill="#4CC6E9" transform="translate(0,0)"/>
<path d="" fill="#4BC6E7" transform="translate(0,0)"/>
<path d="" fill="#4AC1E0" transform="translate(0,0)"/>
<path d="" fill="#4CC7E8" transform="translate(0,0)"/>
<path d="" fill="#4BC5E6" transform="translate(0,0)"/>
<path d="" fill="#4DC1E2" transform="translate(0,0)"/>
<path d="" fill="#4CC6E9" transform="translate(0,0)"/>
<path d="" fill="#4AC5E8" transform="translate(0,0)"/>
<path d="" fill="#4DC2E5" transform="translate(0,0)"/>
<path d="" fill="#4CC2E6" transform="translate(0,0)"/>
<path d="" fill="#4FC9E8" transform="translate(0,0)"/>
<path d="" fill="#4CCCEE" transform="translate(0,0)"/>
<path d="" fill="#4DC7E8" transform="translate(0,0)"/>
<path d="" fill="#50C7E9" transform="translate(0,0)"/>
<path d="" fill="#4DC8E9" transform="translate(0,0)"/>
<path d="" fill="#4CC3E4" transform="translate(0,0)"/>
<path d="" fill="#4CC5E6" transform="translate(0,0)"/>
<path d="" fill="#4AC5E8" transform="translate(0,0)"/>
<path d="" fill="#4DC1E1" transform="translate(0,0)"/>
<path d="" fill="#4CC7E8" transform="translate(0,0)"/>
<path d="" fill="#4FC5E8" transform="translate(0,0)"/>
<path d="" fill="#50C7E6" transform="translate(0,0)"/>
<path d="" fill="#4DC7E5" transform="translate(0,0)"/>
<path d="" fill="#50C8E9" transform="translate(0,0)"/>
<path d="" fill="#52C4E4" transform="translate(0,0)"/>
<path d="" fill="#4FBFE2" transform="translate(0,0)"/>
<path d="" fill="#4AC6E7" transform="translate(0,0)"/>
<path d="" fill="#49C2E7" transform="translate(0,0)"/>
<path d="" fill="#4AC7E8" transform="translate(0,0)"/>
<path d="" fill="#4CC5E5" transform="translate(0,0)"/>
<path d="" fill="#4EC8E8" transform="translate(0,0)"/>
<path d="" fill="#4BC6EC" transform="translate(0,0)"/>
<path d="" fill="#4DC8E9" transform="translate(0,0)"/>
<path d="" fill="#4CC2E4" transform="translate(0,0)"/>
<path d="" fill="#4CBFDF" transform="translate(0,0)"/>
<path d="" fill="#4CC2E0" transform="translate(0,0)"/>
<path d="" fill="#4BBEDF" transform="translate(0,0)"/>
<path d="" fill="#4EC0DF" transform="translate(0,0)"/>
<path d="" fill="#4DB6D5" transform="translate(0,0)"/>
<path d="" fill="#4CC7E8" transform="translate(0,0)"/>
<path d="" fill="#4BC6EA" transform="translate(0,0)"/>
<path d="" fill="#50C9EC" transform="translate(0,0)"/>
<path d="" fill="#4FCAE9" transform="translate(0,0)"/>
<path d="" fill="#4ECAED" transform="translate(0,0)"/>
<path d="" fill="#4DC7EB" transform="translate(0,0)"/>
<path d="" fill="#4CC1E4" transform="translate(0,0)"/>
<path d="" fill="#4CC5E7" transform="translate(0,0)"/>
<path d="" fill="#4DBFDE" transform="translate(0,0)"/>
<path d="" fill="#4DB0CC" transform="translate(0,0)"/>
<path d="" fill="#4BBEDF" transform="translate(0,0)"/>
<path d="" fill="#4FC1DF" transform="translate(0,0)"/>
<path d="" fill="#4AC3E3" transform="translate(0,0)"/>
<path d="" fill="#4DBBDC" transform="translate(0,0)"/>
<path d="" fill="#49B9DA" transform="translate(0,0)"/>
<path d="" fill="#4CBDDC" transform="translate(0,0)"/>
<path d="" fill="#48B7D6" transform="translate(0,0)"/>
<path d="" fill="#4CC5E5" transform="translate(0,0)"/>
<path d="" fill="#4EC4E5" transform="translate(0,0)"/>
<path d="" fill="#4CC7EA" transform="translate(0,0)"/>
<path d="" fill="#4FC6E9" transform="translate(0,0)"/>
<path d="" fill="#4DC7EA" transform="translate(0,0)"/>
<path d="" fill="#4CC4E7" transform="translate(0,0)"/>
<path d="" fill="#4CC9ED" transform="translate(0,0)"/>
<path d="" fill="#4CBDDE" transform="translate(0,0)"/>
<path d="" fill="#49BFE2" transform="translate(0,0)"/>
<path d="" fill="#4CC4E7" transform="translate(0,0)"/>
<path d="" fill="#4BC6E7" transform="translate(0,0)"/>
<path d="" fill="#4EC4E4" transform="translate(0,0)"/>
<path d="" fill="#4EC5E6" transform="translate(0,0)"/>
<path d="" fill="#4EC6E7" transform="translate(0,0)"/>
<path d="" fill="#4EBDDF" transform="translate(0,0)"/>
<path d="" fill="#4FBFDF" transform="translate(0,0)"/>
<path d="" fill="#4BBFE0" transform="translate(0,0)"/>
<path d="" fill="#4ABFDF" transform="translate(0,0)"/>
<path d="" fill="#4DC1E0" transform="translate(0,0)"/>
<path d="" fill="#49BDDD" transform="translate(0,0)"/>
<path d="" fill="#4CBFE1" transform="translate(0,0)"/>
<path d="" fill="#4ABEDE" transform="translate(0,0)"/>
<path d="" fill="#4CBDDE" transform="translate(0,0)"/>
<path d="" fill="#4CBCDD" transform="translate(0,0)"/>
<path d="" fill="#4DBDDA" transform="translate(0,0)"/>
<path d="" fill="#4ABDDD" transform="translate(0,0)"/>
<path d="" fill="#4BBBDC" transform="translate(0,0)"/>
<path d="" fill="#4CBBDC" transform="translate(0,0)"/>
<path d="" fill="#4BBCDC" transform="translate(0,0)"/>
<path d="" fill="#4CBADA" transform="translate(0,0)"/>
<path d="" fill="#49BADB" transform="translate(0,0)"/>
</svg>
